<svg width="85" height="25" viewBox="0 0 85 25" fill="none" xmlns="http://www.w3.org/2000/svg">
<rect x="1" y="4.07141" width="20.2381" height="20.2381" rx="5.95238" fill="#0ACF83"/>
<path d="M14.0689 13.7086C14.4641 15.1834 13.5873 16.6996 12.1105 17.0953C10.6337 17.491 9.11618 16.6163 8.72103 15.1416C8.32588 13.6669 9.20272 12.1506 10.6795 11.7549C12.1563 11.3592 13.6738 12.2339 14.0689 13.7086Z" fill="white"/>
<path fill-rule="evenodd" clip-rule="evenodd" d="M0.769396 5.58837C0.394274 5.96304 0.394062 6.57029 0.768923 6.9447L5.47558 11.6457C4.83921 12.9944 4.65884 14.5662 5.0748 16.1186C6.0088 19.6043 9.59562 21.6719 13.0862 20.7366C16.5768 19.8013 18.6493 16.2173 17.7153 12.7316C16.7813 9.24592 13.1945 7.1784 9.70391 8.1137C9.17838 8.25452 8.68499 8.45537 8.22916 8.70689L3.61688 4.10018C3.24202 3.72578 2.63403 3.72599 2.25891 4.10066L0.769396 5.58837ZM12.3707 18.0664C14.3845 17.5268 15.5802 15.4592 15.0414 13.4482C14.5025 11.4372 12.4332 10.2444 10.4194 10.784C8.40561 11.3236 7.20993 13.3912 7.74877 15.4022C8.28761 17.4132 10.3569 18.606 12.3707 18.0664Z" fill="white"/>
<path d="M28.8 19L33.6762 5.66667H36.5905L41.4476 19H38.7238L35.1048 8.6L31.4857 19H28.8ZM30.9524 15.9714L31.6381 13.9714H38.4191L39.0857 15.9714H30.9524ZM46.7375 19.2286C45.9629 19.2286 45.2963 19.0698 44.7375 18.7524C44.1915 18.4222 43.7724 17.9333 43.4804 17.2857C43.201 16.6381 43.0613 15.8508 43.0613 14.9238V9.47619H45.6137V14.6571C45.6137 15.4444 45.7724 16.0413 46.0899 16.4476C46.4074 16.854 46.909 17.0571 47.5947 17.0571C48.0264 17.0571 48.4074 16.9556 48.7375 16.7524C49.0804 16.5492 49.3471 16.2571 49.5375 15.8762C49.7407 15.4952 49.8423 15.0317 49.8423 14.4857V9.47619H52.4137V19H50.1471L49.9566 17.419C49.6518 17.9651 49.2264 18.4032 48.6804 18.7333C48.1471 19.0635 47.4994 19.2286 46.7375 19.2286ZM59.4372 19.2286C58.561 19.2286 57.7737 19.0127 57.0753 18.581C56.3896 18.1492 55.8436 17.5587 55.4372 16.8095C55.0436 16.0476 54.8468 15.1905 54.8468 14.2381C54.8468 13.273 55.0436 12.4159 55.4372 11.6667C55.8436 10.9175 56.396 10.327 57.0944 9.89524C57.8055 9.46349 58.5991 9.24762 59.4753 9.24762C60.1737 9.24762 60.7833 9.38095 61.3039 9.64762C61.8245 9.90159 62.2436 10.2571 62.561 10.7143V5.28571H65.1325V19H62.8468L62.561 17.6857C62.3706 17.9651 62.1293 18.2254 61.8372 18.4667C61.5579 18.6952 61.2214 18.8794 60.8277 19.019C60.4341 19.1587 59.9706 19.2286 59.4372 19.2286ZM60.0468 16.981C60.5547 16.981 60.9991 16.8667 61.3801 16.6381C61.7737 16.3968 62.0785 16.073 62.2944 15.6667C62.5102 15.2476 62.6182 14.7714 62.6182 14.2381C62.6182 13.6921 62.5102 13.2159 62.2944 12.8095C62.0785 12.3905 61.7737 12.0667 61.3801 11.8381C60.9991 11.6095 60.5483 11.4952 60.0277 11.4952C59.5452 11.4952 59.1071 11.6159 58.7134 11.8571C58.3198 12.0857 58.0087 12.4095 57.7801 12.8286C57.5642 13.2349 57.4563 13.6984 57.4563 14.219C57.4563 14.7651 57.5642 15.2476 57.7801 15.6667C58.0087 16.073 58.3198 16.3968 58.7134 16.6381C59.1071 16.8667 59.5515 16.981 60.0468 16.981ZM67.9282 19V9.47619H70.4996V19H67.9282ZM69.2234 8.14286C68.7536 8.14286 68.3726 8.00317 68.0805 7.72381C67.7885 7.44444 67.6424 7.09524 67.6424 6.67619C67.6424 6.25714 67.7885 5.91429 68.0805 5.64762C68.3726 5.38095 68.7536 5.24762 69.2234 5.24762C69.6932 5.24762 70.0742 5.38095 70.3662 5.64762C70.671 5.91429 70.8234 6.25714 70.8234 6.67619C70.8234 7.09524 70.671 7.44444 70.3662 7.72381C70.0742 8.00317 69.6932 8.14286 69.2234 8.14286ZM77.8508 19.2286C76.9365 19.2286 76.1111 19.019 75.3746 18.6C74.6508 18.1683 74.073 17.5778 73.6412 16.8286C73.2222 16.0794 73.0127 15.2159 73.0127 14.2381C73.0127 13.2603 73.2222 12.3968 73.6412 11.6476C74.073 10.8984 74.6571 10.3143 75.3936 9.89524C76.1301 9.46349 76.9555 9.24762 77.8698 9.24762C78.7841 9.24762 79.6095 9.46349 80.346 9.89524C81.0825 10.3143 81.6603 10.8984 82.0793 11.6476C82.5111 12.3968 82.727 13.2603 82.727 14.2381C82.727 15.2159 82.5111 16.0794 82.0793 16.8286C81.6476 17.5778 81.0635 18.1683 80.327 18.6C79.6032 19.019 78.7778 19.2286 77.8508 19.2286ZM77.8508 17C78.2698 17 78.6444 16.8984 78.9746 16.6952C79.3174 16.4921 79.5905 16.1873 79.7936 15.781C79.9968 15.3619 80.0984 14.8476 80.0984 14.2381C80.0984 13.6286 79.9968 13.1206 79.7936 12.7143C79.5905 12.2952 79.3174 11.9841 78.9746 11.781C78.6444 11.5778 78.2762 11.4762 77.8698 11.4762C77.4635 11.4762 77.0889 11.5778 76.746 11.781C76.4032 11.9841 76.1301 12.2952 75.927 12.7143C75.7238 13.1206 75.6222 13.6286 75.6222 14.2381C75.6222 14.8476 75.7238 15.3619 75.927 15.781C76.1301 16.1873 76.3968 16.4921 76.727 16.6952C77.0698 16.8984 77.4444 17 77.8508 17Z" fill="black"/>
</svg>
